<mxfile host="Electron" agent="Mozilla/5.0 (X11; Linux x86_64) AppleWebKit/537.36 (KHTML, like Gecko) draw.io/24.7.5 Chrome/126.0.6478.183 Electron/31.3.0 Safari/537.36" version="24.7.5">
  <diagram name="Page-1" id="D75X1WWALng9KMZFFqJ9">
    <mxGraphModel dx="1116" dy="562" grid="1" gridSize="10" guides="1" tooltips="1" connect="1" arrows="1" fold="1" page="1" pageScale="1" pageWidth="1169" pageHeight="827" math="1" shadow="0">
      <root>
        <mxCell id="0" />
        <mxCell id="1" parent="0" />
        <mxCell id="dx8fHpEGqs8m7f0w9oeL-1" value="" style="ellipse;whiteSpace=wrap;html=1;aspect=fixed;fillColor=#F8F9FA;dashed=1;strokeWidth=1" parent="1" vertex="1">
          <mxGeometry x="300" y="170" width="380" height="380" as="geometry" />
        </mxCell>
        <mxCell id="dx8fHpEGqs8m7f0w9oeL-2" value="" style="ellipse;whiteSpace=wrap;html=1;rotation=-90;fillColor=none;dashed=1" parent="1" vertex="1">
          <mxGeometry x="295.98" y="260.39" width="380.08" height="198" as="geometry" />
        </mxCell>
        <mxCell id="dx8fHpEGqs8m7f0w9oeL-3" value="" style="ellipse;whiteSpace=wrap;html=1;rotation=90;direction=south;fillColor=none;dashed=1" parent="1" vertex="1">
          <mxGeometry x="415" y="173.68000000000006" width="150" height="376.32" as="geometry" />
        </mxCell>
        <mxCell id="dx8fHpEGqs8m7f0w9oeL-4" value="" style="endArrow=classic;html=1;rounded=0;entryX=0.5;entryY=0;entryDx=0;entryDy=0;fillColor=none;dashed=1" parent="1" target="dx8fHpEGqs8m7f0w9oeL-1" edge="1">
          <mxGeometry width="50" height="50" relative="1" as="geometry">
            <mxPoint x="490" y="360" as="sourcePoint" />
            <mxPoint x="520" y="360" as="targetPoint" />
          </mxGeometry>
        </mxCell>
        <mxCell id="dx8fHpEGqs8m7f0w9oeL-5" value="" style="endArrow=classic;html=1;rounded=0;entryX=0.5;entryY=1;entryDx=0;entryDy=0;fillColor=none;dashed=1" parent="1" target="dx8fHpEGqs8m7f0w9oeL-1" edge="1">
          <mxGeometry width="50" height="50" relative="1" as="geometry">
            <mxPoint x="489.5" y="360" as="sourcePoint" />
            <mxPoint x="489.5" y="170" as="targetPoint" />
          </mxGeometry>
        </mxCell>
        <mxCell id="dx8fHpEGqs8m7f0w9oeL-7" value="" style="endArrow=classic;startArrow=classic;html=1;rounded=0;entryX=1;entryY=0.5;entryDx=0;entryDy=0;exitX=0;exitY=0.5;exitDx=0;exitDy=0;fillColor=none;dashed=1" parent="1" source="dx8fHpEGqs8m7f0w9oeL-1" target="dx8fHpEGqs8m7f0w9oeL-1" edge="1">
          <mxGeometry width="50" height="50" relative="1" as="geometry">
            <mxPoint x="470" y="410" as="sourcePoint" />
            <mxPoint x="520" y="360" as="targetPoint" />
          </mxGeometry>
        </mxCell>
        <mxCell id="dx8fHpEGqs8m7f0w9oeL-9" value="" style="endArrow=classic;html=1;rounded=0;strokeWidth=2;strokeColor=#CC0000;fillColor=#CC0000;entryX=0.685;entryY=0.896;entryDx=0;entryDy=0;entryPerimeter=0;" parent="1" edge="1" target="dx8fHpEGqs8m7f0w9oeL-27">
          <mxGeometry width="50" height="50" relative="1" as="geometry">
            <mxPoint x="490" y="360" as="sourcePoint" />
            <mxPoint x="420" y="410" as="targetPoint" />
          </mxGeometry>
        </mxCell>
        <mxCell id="dx8fHpEGqs8m7f0w9oeL-10" value="&lt;span style=&quot;font-size: 18px;&quot;&gt;$$\ket{0}$$&lt;/span&gt;" style="text;html=1;align=center;verticalAlign=middle;whiteSpace=wrap;rounded=0;" parent="1" vertex="1">
          <mxGeometry x="460" y="130" width="60" height="30" as="geometry" />
        </mxCell>
        <mxCell id="dx8fHpEGqs8m7f0w9oeL-11" value="&lt;span style=&quot;font-size: 18px;&quot;&gt;$$\ket{1}$$&lt;/span&gt;" style="text;html=1;align=center;verticalAlign=middle;whiteSpace=wrap;rounded=0;" parent="1" vertex="1">
          <mxGeometry x="460" y="560" width="60" height="30" as="geometry" />
        </mxCell>
        <mxCell id="dx8fHpEGqs8m7f0w9oeL-12" value="&lt;span style=&quot;font-size: 18px;&quot;&gt;$$\ket{+}$$&lt;/span&gt;" style="text;html=1;align=center;verticalAlign=middle;whiteSpace=wrap;rounded=0;" parent="1" vertex="1">
          <mxGeometry x="340" y="428.39" width="60" height="30" as="geometry" />
        </mxCell>
        <mxCell id="dx8fHpEGqs8m7f0w9oeL-13" value="&lt;span style=&quot;font-size: 18px;&quot;&gt;$$\ket{-}$$&lt;/span&gt;" style="text;html=1;align=center;verticalAlign=middle;whiteSpace=wrap;rounded=0;" parent="1" vertex="1">
          <mxGeometry x="570" y="270" width="60" height="30" as="geometry" />
        </mxCell>
        <mxCell id="dx8fHpEGqs8m7f0w9oeL-14" value="&lt;span style=&quot;font-size: 18px;&quot;&gt;$$\ket{+i}$$&lt;/span&gt;" style="text;html=1;align=center;verticalAlign=middle;whiteSpace=wrap;rounded=0;" parent="1" vertex="1">
          <mxGeometry x="676.06" y="344.39" width="60" height="30" as="geometry" />
        </mxCell>
        <mxCell id="dx8fHpEGqs8m7f0w9oeL-15" value="&lt;span style=&quot;font-size: 18px;&quot;&gt;$$\ket{-i}$$&lt;/span&gt;" style="text;html=1;align=center;verticalAlign=middle;whiteSpace=wrap;rounded=0;" parent="1" vertex="1">
          <mxGeometry x="260" y="345" width="30" height="30" as="geometry" />
        </mxCell>
        <mxCell id="dx8fHpEGqs8m7f0w9oeL-16" value="&lt;font style=&quot;font-size: 18px;&quot;&gt;$$\ket{\psi_1}$$&lt;/font&gt;" style="text;html=1;align=center;verticalAlign=middle;whiteSpace=wrap;rounded=0;" parent="1" vertex="1">
          <mxGeometry x="350" y="240" width="50" height="30" as="geometry" />
        </mxCell>
        <mxCell id="dx8fHpEGqs8m7f0w9oeL-17" value="" style="endArrow=classic;html=1;rounded=0;strokeWidth=2;strokeColor=#0000CC;fillColor=#CC0000;entryX=0.5;entryY=1;entryDx=0;entryDy=0;" parent="1" edge="1" target="atgDKKQyYisQoqST6oXS-2">
          <mxGeometry width="50" height="50" relative="1" as="geometry">
            <mxPoint x="490" y="360" as="sourcePoint" />
            <mxPoint x="560" y="310" as="targetPoint" />
          </mxGeometry>
        </mxCell>
        <mxCell id="dx8fHpEGqs8m7f0w9oeL-19" value="&lt;font style=&quot;font-size: 18px;&quot;&gt;$$\ket{\psi_2}$$&lt;/font&gt;" style="text;html=1;align=center;verticalAlign=middle;whiteSpace=wrap;rounded=0;" parent="1" vertex="1">
          <mxGeometry x="547.5" y="190" width="50" height="30" as="geometry" />
        </mxCell>
        <mxCell id="dx8fHpEGqs8m7f0w9oeL-26" value="" style="endArrow=classic;html=1;rounded=0;fillColor=none;dashed=1;entryX=0.258;entryY=0.939;entryDx=0;entryDy=0;entryPerimeter=0;" parent="1" target="dx8fHpEGqs8m7f0w9oeL-3" edge="1">
          <mxGeometry width="50" height="50" relative="1" as="geometry">
            <mxPoint x="490" y="360" as="sourcePoint" />
            <mxPoint x="500" y="180" as="targetPoint" />
          </mxGeometry>
        </mxCell>
        <mxCell id="dx8fHpEGqs8m7f0w9oeL-27" value="" style="ellipse;whiteSpace=wrap;html=1;aspect=fixed;fillColor=#FF3333;" parent="1" vertex="1">
          <mxGeometry x="395" y="250" width="20" height="20" as="geometry" />
        </mxCell>
        <mxCell id="dx8fHpEGqs8m7f0w9oeL-28" value="" style="endArrow=classic;html=1;rounded=0;entryX=0.752;entryY=0.086;entryDx=0;entryDy=0;fillColor=none;dashed=1;entryPerimeter=0;" parent="1" target="dx8fHpEGqs8m7f0w9oeL-3" edge="1">
          <mxGeometry width="50" height="50" relative="1" as="geometry">
            <mxPoint x="490" y="360" as="sourcePoint" />
            <mxPoint x="500" y="180" as="targetPoint" />
          </mxGeometry>
        </mxCell>
        <mxCell id="atgDKKQyYisQoqST6oXS-2" value="" style="ellipse;whiteSpace=wrap;html=1;aspect=fixed;fillColor=#0000CC;" vertex="1" parent="1">
          <mxGeometry x="537.5" y="200" width="10" height="10" as="geometry" />
        </mxCell>
      </root>
    </mxGraphModel>
  </diagram>
</mxfile>
